<svg xmlns="http://www.w3.org/2000/svg" width="232" height="401" viewBox="0 0 232 401"><g id="number"><path id="1" d="M 51.242,381.750 C 51.242,381.750 49.136,379.500 49.136,379.500 C 49.136,379.500 65.702,358 65.702,358 C 74.814,346.175 86.402,331.550 91.454,325.500 C 96.506,319.450 101.448,313.263 102.435,311.750 C 103.677,309.847 105.081,309 106.993,309 C 111.137,309 112.236,311.070 111.844,318.132 C 111.611,322.337 111.887,324.461 112.702,324.733 C 114.377,325.292 121.820,317.274 125.923,310.491 C 133.440,298.063 138.265,277.856 136.432,266.477 C 135.082,258.093 133.995,257.870 124.029,263.923 C 114.620,269.638 105.596,272.813 96.254,273.697 C 90.070,274.282 89.974,274.252 86.589,270.663 C 82.520,266.349 80.706,259.649 82.170,254.346 C 83.607,249.142 89.348,243.465 97.086,239.594 C 108.514,233.877 118.662,233.870 130.966,239.574 C 134.473,241.200 137.301,241.891 138.854,241.501 C 142.038,240.702 155.303,227.077 163.515,216.170 C 175.662,200.038 184.361,178.912 182.352,170.419 C 181.862,168.348 180.988,166.496 180.409,166.303 C 179.830,166.110 173.765,171.501 166.929,178.282 C 153.846,191.260 145.889,197.465 133.828,204.095 C 113.655,215.184 85.880,220.166 62.322,216.923 C 43.925,214.390 35.171,205.917 34.203,189.707 C 33.762,182.328 33.929,181.528 37.331,174.645 C 39.732,169.786 43.589,164.527 48.960,158.786 C 60.906,146.017 72.215,139.169 91.500,133.024 C 109.350,127.336 119.102,125.649 134,125.673 C 149.875,125.698 158.504,127.625 171.202,133.981 C 175.618,136.191 179.619,138 180.093,138 C 181.644,138 195.224,116.796 199.629,107.496 C 205.262,95.604 206.414,89.896 205.684,77.500 C 204.617,59.390 199.868,46.050 191.182,36.764 C 185.737,30.943 179.162,27.410 165.852,23.156 C 137.310,14.034 113.572,17.718 78.714,36.678 C 51.109,51.693 36.991,63.032 26.095,78.941 C 18.120,90.585 16.049,95.268 16.022,101.719 C 16.004,105.984 15.721,106.830 14.472,106.351 C 11.794,105.323 11.179,102.715 12.155,96.530 C 14.570,81.226 33.032,58.391 54.352,44.339 C 72.394,32.447 97.828,20.475 113.766,16.370 C 127.176,12.916 146.951,12.082 159.438,14.444 C 176.438,17.660 192.131,25.658 204.206,37.260 C 214.560,47.209 219.232,60.698 219.355,81 C 219.471,100.112 216.963,107.106 200.306,134.113 C 195.387,142.089 191.065,149.389 190.702,150.335 C 190.339,151.281 190.755,155.081 191.627,158.778 C 193.585,167.081 192.950,179.054 190.119,187.207 C 183.497,206.280 167.864,229.164 152.131,242.817 C 145.229,248.806 144.268,251.006 146.363,256.019 C 149.203,262.817 150.166,271.479 149.016,279.880 C 147.735,289.237 143.836,301.762 140.261,308 C 137.449,312.908 121.282,336.822 117.781,341.253 C 114.703,345.148 116.155,346.063 127.166,347.168 C 141.566,348.613 145.556,351.058 140.790,355.516 C 134.392,361.500 98.872,374.022 65.863,381.931 C 55.016,384.530 53.830,384.515 51.242,381.750M 85.324,368.551 C 105.347,362.879 118,357.897 118,355.684 C 118,355 114.222,353.419 109.416,352.093 C 104.471,350.729 100.588,349.091 100.258,348.231 C 99.943,347.410 100.182,343.534 100.789,339.619 C 102.290,329.937 101.120,329.054 95.330,335.500 C 89.817,341.638 75.019,361.149 72.032,366.217 C 69.932,369.780 69.971,372 72.133,372 C 72.691,372 78.627,370.448 85.324,368.551M 110.565,260.116 C 119.215,256.068 128,250.141 128,248.352 C 128,245.942 121.256,243.742 116.074,244.461 C 110.154,245.283 99.974,250.216 95.510,254.426 C 92.161,257.584 90.938,261.576 92.750,263.437 C 94.221,264.948 104.226,263.082 110.565,260.116M 87,203.014 C 106.881,198.678 127.707,189.036 145.065,176.129 C 155.573,168.316 169.343,154.625 168.737,152.594 C 168.017,150.181 158.571,146.787 145.886,144.382 C 124.858,140.396 112.981,141.626 86.012,150.585 C 60.711,158.990 40.744,177.165 42.239,190.430 C 43.806,204.335 60.031,208.896 87,203.014" stroke="#221F20" fill="#221F20" stroke-width="1" />
</g></svg>